<?xml version="1.0" ?><svg style="enable-background:new 0 0 512 512;" version="1.1" viewBox="0 0 512 512" xml:space="preserve" xmlns="http://www.w3.org/2000/svg" xmlns:xlink="http://www.w3.org/1999/xlink"><g id="Layer_1"/><g id="Layer_2"><g><g><path d="M420.6,415.3H91.4c-12.9,0-23.4-10.5-23.4-23.4V175.6c0-12.9,10.5-23.4,23.4-23.4h329.2c12.9,0,23.4,10.5,23.4,23.4     v216.3C444,404.8,433.5,415.3,420.6,415.3z M91.4,167.2c-4.6,0-8.4,3.8-8.4,8.4v216.3c0,4.6,3.8,8.4,8.4,8.4h329.2     c4.6,0,8.4-3.8,8.4-8.4V175.6c0-4.6-3.8-8.4-8.4-8.4H91.4z"/></g><g><path d="M291.1,167.2h-70.2c-4.1,0-7.5-3.4-7.5-7.5v-55.5c0-4.1,3.4-7.5,7.5-7.5h70.2c4.1,0,7.5,3.4,7.5,7.5v55.5     C298.6,163.9,295.2,167.2,291.1,167.2z M228.4,152.2h55.2v-40.5h-55.2V152.2z"/></g><g><g><path d="M216.8,383.8H110.2c-4.1,0-7.5-3.4-7.5-7.5v-31.6c0-31.2,25.3-56.5,56.5-56.5h8.7c31.2,0,56.5,25.3,56.5,56.5v31.6      C224.3,380.4,221,383.8,216.8,383.8z M117.7,368.8h91.7v-24.1c0-22.9-18.6-41.5-41.5-41.5h-8.7c-22.9,0-41.5,18.6-41.5,41.5      V368.8z"/></g><g><path d="M163.5,273.3c-18.2,0-33.1-14.8-33.1-33.1c0-18.2,14.8-33.1,33.1-33.1s33.1,14.8,33.1,33.1      C196.6,258.4,181.7,273.3,163.5,273.3z M163.5,222.1c-10,0-18.1,8.1-18.1,18.1s8.1,18.1,18.1,18.1s18.1-8.1,18.1-18.1      S173.5,222.1,163.5,222.1z"/></g></g><g><g><path d="M391,267.9H256c-4.1,0-7.5-3.4-7.5-7.5s3.4-7.5,7.5-7.5h135c4.1,0,7.5,3.4,7.5,7.5S395.1,267.9,391,267.9z"/></g><g><path d="M391,338H256c-4.1,0-7.5-3.4-7.5-7.5s3.4-7.5,7.5-7.5h135c4.1,0,7.5,3.4,7.5,7.5S395.1,338,391,338z"/></g></g></g></g></svg>